<?xml version="1.0" encoding="UTF-8" standalone="no"?>
<!-- Created with Inkscape (http://www.inkscape.org/) -->

<svg
   width="512"
   height="512"
   viewBox="0 0 512 512"
   version="1.1"
   id="svg1"
   xml:space="preserve"
   inkscape:version="1.4.4 (dcaf3e7d9e, 2026-05-05)"
   sodipodi:docname="bogdev.svg"
   inkscape:export-filename="bogdev.png"
   inkscape:export-xdpi="96"
   inkscape:export-ydpi="96"
   xmlns:inkscape="http://www.inkscape.org/namespaces/inkscape"
   xmlns:sodipodi="http://sodipodi.sourceforge.net/DTD/sodipodi-0.dtd"
   xmlns="http://www.w3.org/2000/svg"
   xmlns:svg="http://www.w3.org/2000/svg"><sodipodi:namedview
     id="namedview1"
     pagecolor="#ffffff"
     bordercolor="#000000"
     borderopacity="0.25"
     inkscape:showpageshadow="2"
     inkscape:pageopacity="0.0"
     inkscape:pagecheckerboard="0"
     inkscape:deskcolor="#d1d1d1"
     inkscape:document-units="px"
     inkscape:zoom="0.90234375"
     inkscape:cx="311.41126"
     inkscape:cy="299.22078"
     inkscape:window-width="2133"
     inkscape:window-height="1132"
     inkscape:window-x="0"
     inkscape:window-y="0"
     inkscape:window-maximized="1"
     inkscape:current-layer="layer1"
     inkscape:export-bgcolor="#ffffff00" /><defs
     id="defs1"><clipPath
       clipPathUnits="userSpaceOnUse"
       id="clipPath52"><path
         id="path52"
         style="stroke-width:0.1;stroke-linecap:square;paint-order:markers fill stroke;stop-color:#000000"
         d="m -880.82767,-187.29769 h 1640.84 v 73.28155 h -1640.84 z" /></clipPath></defs><g
     inkscape:label="Layer 1"
     inkscape:groupmode="layer"
     id="layer1"><g
       id="g41"
       transform="matrix(2.0019738,0,0,2.0019738,-128.36075,-162.58342)"
       style="stroke-width:1.00025;stroke-dasharray:none"><path
         d="m 197.58848,114.47254 c -21.3116,-1.01331 -40.44391,4.22567 -58.00781,15.88672 -10.97562,7.28694 -24.35053,21.83191 -30.40236,33.05859 -5.71473,10.60135 -10.237416,25.07151 -11.230456,35.93555 -0.29456,3.22263 -0.64491,6.04742 -0.7793,6.27734 -0.26384,0.45145 -17.061744,-1.11785 -24.388674,-2.27929 -2.46797,-0.39126 -4.601664,-0.60498 -4.740234,-0.47461 -0.13857,0.13038 3.72865,1.48759 8.59375,3.01758 17.664008,5.55502 34.070024,8.60578 52.595694,9.77929 14.92525,0.94544 22.1654,0.95923 36.01173,0.0684 25.65276,-1.65049 50.09016,-5.91181 72.46094,-12.63476 l 5.34766,-1.60547 -0.50782,-3.375 c -1.38876,-9.26098 -8.51506,-21.27002 -16.67968,-28.10742 -10.26735,-8.59831 -20.95803,-12.45778 -34.13282,-12.32032 -14.61119,0.15245 -25.47202,4.87177 -36.375,15.8086 -7.31161,7.33432 -11.72685,15.70369 -13.84765,26.24804 l -1.41016,7.01954 H 124.50644 108.9166 l 0.22265,-4.29688 c 0.33314,-6.47418 2.28446,-15.09847 5.13281,-22.68164 14.12176,-37.59635 54.33687,-60.71228 92.43947,-53.13477 10.81584,2.15096 16.73778,4.23766 25.12695,8.84961 12.79697,7.03515 23.6694,17.53547 31.76562,30.67969 4.50621,7.31582 4.87958,7.69589 9.64844,9.8418 2.72838,1.22773 5.98036,2.95833 7.22656,3.8457 1.2462,0.88737 2.26563,1.36856 2.26563,1.07031 0,-1.33307 -5.85767,-14.99834 -7.97656,-18.60937 -16.78954,-28.613 -45.39816,-46.35606 -77.17969,-47.86719 z"
         id="path38"
         style="fill:#0D6B6F;fill-opacity:1;stroke:none;stroke-width:2.36047;stroke-dasharray:none;stroke-opacity:1" /><path
         d="m 286.7877,218.17567 -0.52735,4.0664 c -0.99554,7.67189 -5.35954,21.48714 -9.17578,29.05078 -12.89016,25.54777 -37.52536,44.6726 -65.41992,50.78711 -5.67314,1.24356 -24.16274,2.16899 -29.70117,1.48633 -20.92914,-2.57971 -39.24591,-11.20015 -54.52149,-25.65625 -13.99653,-13.24569 -22.44608,-27.74994 -27.37696,-47 -1.125446,-4.39376 -1.877566,-8.15428 -1.679676,-8.3789 0.20615,-0.19764 2.932626,0.19351 6.058586,0.86914 5.02569,1.08622 5.73599,1.46177 6.13672,3.24023 6.34685,28.16721 26.67274,51.28514 53.80469,61.19727 10.5895,3.86866 16.35305,4.83106 28.51563,4.76562 13.84855,-0.0745 24.48131,-2.52566 35.54297,-8.19531 23.42019,-12.00403 39.68108,-32.69977 45.38086,-57.75977 0.6778,-2.98006 1.46862,-5.41992 1.75781,-5.41992 0.28919,0 2.9286,-0.68558 5.86523,-1.52539 z"
         id="path37"
         style="fill:#D4743F;fill-opacity:1;stroke:none;stroke-width:2.36047;stroke-dasharray:none;stroke-opacity:1" /><path
         d="m 241.19785,160.68348 0.4004,5.85937 c 0.46358,6.76425 1.612,9.86828 5.5664,15.03907 3.27965,4.28847 2.76965,4.67352 -1.80273,1.36132 -1.7832,-1.29174 -3.23838,-2.08277 -3.23438,-1.75781 0.0125,1.00336 4.44205,8.31005 6.08985,10.04492 2.71839,2.86202 8.2343,7.14347 11.85351,9.19922 l 3.49805,1.98633 -7.01367,3.18555 c -11.47364,5.21256 -12.95873,5.79954 -24.02344,9.4707 -25.21927,8.36749 -53.20519,13.14046 -83.19922,14.18945 l -4.89844,0.16993 2.94532,5 c 3.91576,6.64875 8.49666,11.65022 14.875,16.23828 7.39999,5.32295 11.75128,7.26533 20.49023,9.15039 6.80106,1.46704 11.43766,1.48504 18.27734,0.0723 12.20672,-2.52136 20.76129,-7.31758 29.16797,-16.35547 5.21024,-5.60145 8.10344,-10.32571 11.03516,-18.01171 1.44921,-3.79937 1.63611,-3.95564 6.84765,-5.7461 5.62578,-1.93276 20.5296,-4.80078 24.95118,-4.80078 4.1894,0 12.93066,-2.30343 17.14257,-4.51758 2.28479,-1.2011 6.99723,-5.23622 11.35352,-9.72265 5.93976,-6.1172 8.35631,-8.04022 11.93359,-9.49414 3.34656,-1.36014 4.23129,-2.02648 3.48829,-2.62696 -1.78272,-1.44076 -11.21866,-4.88672 -13.38086,-4.88672 -1.15886,0 -5.39554,1.61073 -9.41602,3.58008 l -7.31055,3.58008 -3.71093,-2.83203 c -4.56111,-3.48158 -6.39407,-4.43943 -16.46094,-8.59961 -4.37801,-1.80923 -9.49428,-4.19076 -11.36914,-5.29102 -4.41336,-2.58998 -10.63961,-8.09222 -12.57422,-11.11132 z"
         id="path36"
         style="fill:#D4743F;fill-opacity:1;stroke:none;stroke-width:1.00025;stroke-dasharray:none;stroke-opacity:1" /><path
         d="m 96.388226,205.782 c -0.527471,-0.0625 -17.331815,-1.13555 -24.774724,-2.31537 -2.507037,-0.39747 -4.674506,-0.61457 -4.815269,-0.48213 -0.140764,0.13244 3.787671,1.51114 8.729782,3.06534 17.943615,5.64296 34.609335,8.74201 53.428235,9.93409 15.16151,0.96042 22.51625,0.97438 36.58177,0.0696 26.05881,-1.67662 50.88304,-6.00539 73.60794,-12.83477 l 5.43229,-1.63087 -0.51584,-3.42843 c -1.41075,-9.40757 -8.64986,-21.6067 -16.94373,-28.55234 -10.42987,-8.7344 -21.28976,-12.65497 -34.6731,-12.51533 -14.84248,0.15486 -25.87522,4.94888 -36.95078,16.05883 -7.42735,7.45041 -11.91248,15.95228 -14.06685,26.66353 l -1.43248,7.13065 h -15.83662 -15.83661 c 18.00164,1.56458 -6.7707,-0.55001 -11.934014,-1.16269 z"
         id="path40"
         sodipodi:nodetypes="sssssccccsssccccs"
         style="fill:#0D6B6F;fill-opacity:1;stroke:none;stroke-width:1.00025;stroke-dasharray:none;stroke-opacity:1" /></g></g></svg>
